<?xml version="1.0" encoding="UTF-8" standalone="no"?><!-- Generator: Gravit.io --><svg xmlns="http://www.w3.org/2000/svg" xmlns:xlink="http://www.w3.org/1999/xlink" style="isolation:isolate" viewBox="21 24.382 82.285 20" width="82.285pt" height="20pt"><g><path d=" M 56.898 42.141 L 47.543 42.141 L 47.543 27.863 L 51.4 27.863 L 51.4 39.025 L 56.898 39.025 L 56.898 42.141 L 56.898 42.141 Z  M 72.543 34.982 L 72.543 34.982 L 72.543 34.982 Q 72.543 38.586 70.775 40.461 L 70.775 40.461 L 70.775 40.461 Q 69.008 42.336 65.6 42.336 L 65.6 42.336 L 65.6 42.336 Q 62.24 42.336 60.448 40.451 L 60.448 40.451 L 60.448 40.451 Q 58.656 38.566 58.656 34.963 L 58.656 34.963 L 58.656 34.963 Q 58.656 31.398 60.438 29.519 L 60.438 29.519 L 60.438 29.519 Q 62.221 27.639 65.619 27.639 L 65.619 27.639 L 65.619 27.639 Q 69.027 27.639 70.785 29.504 L 70.785 29.504 L 70.785 29.504 Q 72.543 31.369 72.543 34.982 Z  M 62.719 34.982 L 62.719 34.982 L 62.719 34.982 Q 62.719 39.123 65.6 39.123 L 65.6 39.123 L 65.6 39.123 Q 67.064 39.123 67.772 38.117 L 67.772 38.117 L 67.772 38.117 Q 68.48 37.111 68.48 34.982 L 68.48 34.982 L 68.48 34.982 Q 68.48 32.844 67.763 31.823 L 67.763 31.823 L 67.763 31.823 Q 67.045 30.803 65.619 30.803 L 65.619 30.803 L 65.619 30.803 Q 62.719 30.803 62.719 34.982 Z  M 80.854 36.76 L 80.854 33.781 L 87.016 33.781 L 87.016 41.477 L 87.016 41.477 Q 84.506 42.336 81.498 42.336 L 81.498 42.336 L 81.498 42.336 Q 78.197 42.336 76.396 40.422 L 76.396 40.422 L 76.396 40.422 Q 74.594 38.508 74.594 34.963 L 74.594 34.963 L 74.594 34.963 Q 74.594 31.506 76.566 29.582 L 76.566 29.582 L 76.566 29.582 Q 78.539 27.658 82.094 27.658 L 82.094 27.658 L 82.094 27.658 Q 83.441 27.658 84.638 27.912 L 84.638 27.912 L 84.638 27.912 Q 85.834 28.166 86.723 28.557 L 86.723 28.557 L 85.502 31.584 L 85.502 31.584 Q 83.959 30.822 82.113 30.822 L 82.113 30.822 L 82.113 30.822 Q 80.424 30.822 79.501 31.921 L 79.501 31.921 L 79.501 31.921 Q 78.578 33.02 78.578 35.061 L 78.578 35.061 L 78.578 35.061 Q 78.578 37.063 79.413 38.112 L 79.413 38.112 L 79.413 38.112 Q 80.248 39.162 81.82 39.162 L 81.82 39.162 L 81.82 39.162 Q 82.68 39.162 83.402 38.996 L 83.402 38.996 L 83.402 36.76 L 80.854 36.76 L 80.854 36.76 Z  M 103.285 34.982 L 103.285 34.982 L 103.285 34.982 Q 103.285 38.586 101.518 40.461 L 101.518 40.461 L 101.518 40.461 Q 99.75 42.336 96.342 42.336 L 96.342 42.336 L 96.342 42.336 Q 92.982 42.336 91.19 40.451 L 91.19 40.451 L 91.19 40.451 Q 89.398 38.566 89.398 34.963 L 89.398 34.963 L 89.398 34.963 Q 89.398 31.398 91.181 29.519 L 91.181 29.519 L 91.181 29.519 Q 92.963 27.639 96.361 27.639 L 96.361 27.639 L 96.361 27.639 Q 99.77 27.639 101.527 29.504 L 101.527 29.504 L 101.527 29.504 Q 103.285 31.369 103.285 34.982 Z  M 93.461 34.982 L 93.461 34.982 L 93.461 34.982 Q 93.461 39.123 96.342 39.123 L 96.342 39.123 L 96.342 39.123 Q 97.807 39.123 98.515 38.117 L 98.515 38.117 L 98.515 38.117 Q 99.223 37.111 99.223 34.982 L 99.223 34.982 L 99.223 34.982 Q 99.223 32.844 98.505 31.823 L 98.505 31.823 L 98.505 31.823 Q 97.787 30.803 96.361 30.803 L 96.361 30.803 L 96.361 30.803 Q 93.461 30.803 93.461 34.982 Z " fill="rgb(0,0,0)"/><circle vector-effect="non-scaling-stroke" cx="30.999999999999986" cy="34.3818359375" r="10" fill="rgb(0,191,114)"/></g></svg>